<?xml version="1.0" encoding="utf-8"?>
<!-- Generator: Adobe Illustrator 24.2.3, SVG Export Plug-In . SVG Version: 6.00 Build 0)  -->
<svg version="1.1" xmlns="http://www.w3.org/2000/svg" xmlns:xlink="http://www.w3.org/1999/xlink" x="0px" y="0px"
	 viewBox="0 0 1024 680" style="enable-background:new 0 0 1024 680;" xml:space="preserve">
<style type="text/css">
	.st0{fill:#F1F1F1;}
	.st1{fill:#CCCCCC;}
	.st2{fill:none;stroke:#343434;stroke-width:2;stroke-miterlimit:10;}
	.st3{fill:#343434;}
	.st4{fill:#1D9CD3;}
	.st5{fill:#0C5C8D;}
	.st6{fill:#786CCD;}
	.st7{fill:#33208C;}
	.st8{fill:none;stroke:#999999;stroke-miterlimit:10;}
</style>
<g id="Background">
	<rect y="0" class="st0" width="1024" height="680"/>
</g>
<g id="art">
	<g>
		<path class="st1" d="M984,310c0,5.5-4.5,10-10,10H50c-5.5,0-10-4.5-10-10V50c0-5.5,4.5-10,10-10h924c5.5,0,10,4.5,10,10V310z"/>
		<path class="st2" d="M984,310c0,5.5-4.5,10-10,10H50c-5.5,0-10-4.5-10-10V50c0-5.5,4.5-10,10-10h924c5.5,0,10,4.5,10,10V310z"/>
	</g>
	<g>
		<path class="st1" d="M984,630c0,5.5-4.5,10-10,10H50c-5.5,0-10-4.5-10-10V370c0-5.5,4.5-10,10-10h924c5.5,0,10,4.5,10,10V630z"/>
		<path class="st2" d="M984,630c0,5.5-4.5,10-10,10H50c-5.5,0-10-4.5-10-10V370c0-5.5,4.5-10,10-10h924c5.5,0,10,4.5,10,10V630z"/>
	</g>
	<circle class="st0" cx="155" cy="521.02942" r="75"/>
	<circle class="st0" cx="393" cy="521.02942" r="75"/>
	<circle class="st0" cx="631" cy="521.02942" r="75"/>
	<circle class="st0" cx="869" cy="521.02942" r="75"/>
	<g>
		<path class="st3" d="M472.05859,64.82031c2.12793,0,3.52832,0.86719,4.31152,1.82031l-1.67969,2.32422
			c-0.61621-0.75586-1.34375-1.17578-2.26758-1.17578c-1.93262,0-3.08008,1.76367-3.08008,4.11523s1.14746,4.14453,3.08008,4.14453
			c0.92383,0,1.65137-0.41992,2.26758-1.17578l1.67969,2.32227c-0.7832,0.95312-2.18359,1.82031-4.31152,1.82031
			c-3.72363,0-6.18848-2.9668-6.18848-7.11133C465.87012,67.78906,468.33496,64.82031,472.05859,64.82031z"/>
		<path class="st3" d="M479.5625,79.85547c0.92383,1.00781,2.10059,1.48438,3.47168,1.48438
			c1.54004,0,3.02441-0.8125,3.02441-3.19141v-1.65234c-0.83984,1.34375-2.09961,2.07227-3.41602,2.07227
			c-3.02344,0-4.98438-2.43555-4.98438-6.85938c0-4.33984,1.96094-6.88867,4.98438-6.88867
			c1.31641,0,2.60449,0.64453,3.41602,2.04297v-1.70703h3.36035v12.82422c0,4.92773-3.2207,6.1875-6.21582,6.1875
			c-1.98828,0-3.58398-0.47656-4.98438-1.73633L479.5625,79.85547z M486.05859,69.38477
			c-0.41992-0.89648-1.40039-1.5957-2.32422-1.5957c-1.70801,0-2.60352,1.56641-2.60352,3.91992
			c0,2.35156,0.89551,3.89062,2.60352,3.89062c0.92383,0,1.9043-0.69922,2.32422-1.56836V69.38477z"/>
		<path class="st3" d="M492.4707,65.15625h3.36035v1.875c0.75586-1.23047,2.24023-2.18359,3.69629-2.18359V68.125
			c-0.22461-0.05664-0.50391-0.08398-0.8125-0.08398c-1.06348,0-2.32422,0.72656-2.88379,1.62305v9.01562h-3.36035V65.15625z"/>
		<path class="st3" d="M500.73047,71.9043c0-3.7793,2.12891-7.08398,6.10449-7.08398c4.03223,0,6.13184,3.30469,6.13184,7.08398
			c0,3.80859-2.09961,7.11133-6.13184,7.11133C502.85938,79.01562,500.73047,75.71289,500.73047,71.9043z M509.49512,71.9043
			c0-2.21289-0.8125-4.11523-2.66016-4.11523c-1.79199,0-2.60449,1.90234-2.60449,4.11523c0,2.24023,0.8125,4.14453,2.60449,4.14453
			C508.68262,76.04883,509.49512,74.14453,509.49512,71.9043z"/>
		<path class="st3" d="M522.87891,76.97266c-0.72754,1.06445-2.21191,2.04297-3.97559,2.04297
			c-2.49219,0-3.6123-1.37109-3.6123-3.63867v-10.2207h3.36035v8.93164c0,1.42773,0.67188,1.96094,1.79199,1.96094
			c1.0918,0,1.95996-0.8125,2.43555-1.65234v-9.24023h3.36035v13.52344h-3.36035V76.97266z"/>
		<path class="st3" d="M529.2627,83.83203V65.15625h3.36035v1.70703c0.83984-1.34375,2.09961-2.04297,3.41602-2.04297
			c3.05176,0,5.01172,2.66016,5.01172,7.08398c0,4.39648-1.95996,7.11133-5.01172,7.11133
			c-1.28809,0-2.57617-0.64258-3.41602-2.04297v6.85938H529.2627z M534.94727,67.78906c-0.89648,0-1.87598,0.67188-2.32422,1.56641
			v5.09766c0.44824,0.86719,1.42773,1.5957,2.32422,1.5957c1.73535,0,2.63184-1.76367,2.63184-4.14453
			C537.5791,69.55273,536.68262,67.78906,534.94727,67.78906z"/>
		<path class="st3" d="M542.70312,70.47656h5.87988v2.85547h-5.87988V70.47656z"/>
		<path class="st3" d="M553.51074,64.84766l-2.82812,2.94141l-2.15625-2.26953l5.48828-5.51562h3.27637v18.67578h-3.78027V64.84766z
			"/>
	</g>
	<g>
		<path class="st3" d="M282.43213,393.72656c1.03516,1.14844,2.65918,1.98828,4.47949,1.98828
			c1.67969,0,2.57617-0.92383,2.57617-2.07227c0-1.42773-1.34375-2.04492-3.05176-2.77148
			c-2.35254-0.92578-5.29199-2.04492-5.29199-5.74023c0-2.94141,2.2959-5.43359,6.15918-5.43359
			c2.26855,0,4.22852,0.72852,5.65625,2.07227l-1.79199,2.80078c-1.12012-1.06445-2.54785-1.56836-3.94824-1.56836
			c-1.39941,0-2.23926,0.78516-2.23926,1.9043c0,1.25977,1.28809,1.84766,2.96777,2.54883
			c2.4082,0.95117,5.34766,2.18359,5.34766,5.87891c0,3.27539-2.23926,5.68359-6.32812,5.68359
			c-2.82715,0-4.89941-0.92383-6.38379-2.4082L282.43213,393.72656z"/>
		<path class="st3" d="M296.40381,401.20117c0.75586,0,1.23145-0.2793,1.4834-0.97852l0.44824-1.28906l-4.56348-13.77539h3.58398
			l2.71582,9.46484l2.74414-9.46484h3.58398l-5.29199,15.82031c-0.83984,2.49219-2.2959,3.16406-4.45215,3.19141
			c-0.41992,0-1.25977-0.08398-1.62402-0.19531l0.50391-2.96875C295.75928,401.11719,296.15186,401.20117,296.40381,401.20117z"/>
		<path class="st3" d="M308.22021,394.73438c0.83984,0.89648,2.35156,1.65234,3.72363,1.65234
			c1.28809,0,1.98828-0.5332,1.98828-1.40039c0-0.92383-1.03613-1.31641-2.32422-1.73633
			c-1.9043-0.61523-4.36816-1.34375-4.36816-4.36719c0-2.18555,1.76465-4.06055,4.92773-4.06055
			c1.93262,0,3.52832,0.69922,4.7041,1.73633l-1.34375,2.26758c-0.67188-0.75586-1.93164-1.40039-3.30371-1.40039
			c-1.06445,0-1.79199,0.50391-1.79199,1.25977c0,0.8125,0.92383,1.20508,2.18359,1.5957
			c1.95996,0.61719,4.53613,1.42969,4.53613,4.53711c0,2.43555-1.98828,4.19922-5.15234,4.19922
			c-2.18359,0-4.05957-0.72656-5.20801-1.93164L308.22021,394.73438z"/>
		<path class="st3" d="M319.95166,395.43359v-7.33594h-1.76367v-2.93945h1.76367v-3.69531h3.36035v3.69531h2.24023v2.93945h-2.24023
			v6.55273c0,0.86719,0.33594,1.40039,0.98047,1.40039c0.41992,0,0.83984-0.16797,1.00781-0.39258l0.7002,2.57617
			c-0.50488,0.44727-1.37207,0.7832-2.60449,0.7832C321.04443,399.01758,319.95166,397.81445,319.95166,395.43359z"/>
		<path class="st3" d="M333.05615,384.82227c3.72363,0,5.82324,3.02344,5.82324,7.22461v0.95117h-8.4834
			c0.13965,1.84766,1.23145,3.30469,3.27539,3.30469c1.03613,0,2.18457-0.47656,2.94043-1.31641l1.54004,2.01562
			c-1.2041,1.31641-3.02441,2.01562-4.84375,2.01562c-3.80859,0-6.30078-2.85547-6.30078-7.11133
			C327.00732,387.98633,329.3042,384.82227,333.05615,384.82227z M330.396,390.70312h5.23535
			c-0.05566-1.40039-0.67188-3.16406-2.63184-3.16406C331.12354,387.53906,330.45166,389.30273,330.396,390.70312z"/>
		<path class="st3" d="M355.56787,389.58203c0-1.11914-0.47559-1.79102-1.54004-1.79102s-1.9043,0.92383-2.32422,1.67969v9.21094
			h-3.35938v-9.09961c0-1.0918-0.44824-1.79102-1.54004-1.79102c-1.03613,0-1.9043,0.92383-2.32422,1.67969v9.21094h-3.36035
			V385.1582h3.36035v1.76367c0.53223-0.92383,2.09961-2.09961,3.80762-2.09961s2.91211,0.8125,3.27637,2.35156
			c0.64355-1.17578,2.24023-2.35156,3.94824-2.35156c2.07129,0,3.41602,1.0918,3.41602,3.58398v10.27539h-3.36035V389.58203z"/>
		<path class="st3" d="M373.73975,391.90625h-2.01562v6.77539h-3.75195v-18.67578h6.97168c3.41602,0,5.68359,2.46484,5.68359,5.9082
			c0,3.2207-1.70801,4.84375-3.24805,5.34766l3.38867,7.41992h-4.17188L373.73975,391.90625z M374.3833,383.28125h-2.65918v5.37695
			h2.65918c1.45605,0,2.4082-1.0918,2.4082-2.6875C376.7915,384.31836,375.83936,383.28125,374.3833,383.28125z"/>
		<path class="st3" d="M387.90869,384.82227c3.72363,0,5.82324,3.02344,5.82324,7.22461v0.95117h-8.4834
			c0.13965,1.84766,1.23145,3.30469,3.27539,3.30469c1.03613,0,2.18457-0.47656,2.94043-1.31641l1.54004,2.01562
			c-1.2041,1.31641-3.02441,2.01562-4.84375,2.01562c-3.80859,0-6.30078-2.85547-6.30078-7.11133
			C381.85986,387.98633,384.15674,384.82227,387.90869,384.82227z M385.24854,390.70312h5.23535
			c-0.05566-1.40039-0.67188-3.16406-2.63184-3.16406C385.97607,387.53906,385.3042,389.30273,385.24854,390.70312z"/>
		<path class="st3" d="M410.42041,389.58203c0-1.11914-0.47559-1.79102-1.54004-1.79102s-1.9043,0.92383-2.32422,1.67969v9.21094
			h-3.35938v-9.09961c0-1.0918-0.44824-1.79102-1.54004-1.79102c-1.03613,0-1.9043,0.92383-2.32422,1.67969v9.21094h-3.36035
			V385.1582h3.36035v1.76367c0.53223-0.92383,2.09961-2.09961,3.80762-2.09961s2.91211,0.8125,3.27637,2.35156
			c0.64355-1.17578,2.24023-2.35156,3.94824-2.35156c2.07129,0,3.41602,1.0918,3.41602,3.58398v10.27539h-3.36035V389.58203z"/>
		<path class="st3" d="M423.8042,397.33789c-0.75586,1.06445-2.18359,1.67969-3.55566,1.67969
			c-2.12793,0-4.17188-1.5957-4.17188-4.47852c0-2.96875,2.04395-4.36914,4.17188-4.36914c1.40039,0,2.82812,0.5332,3.55566,1.5957
			v-1.79102c0-1.45703-0.89551-2.35156-2.49219-2.35156c-1.17578,0-2.32324,0.47461-3.33105,1.45508l-1.26074-2.29688
			c1.42871-1.37109,3.47266-1.95898,5.20801-1.95898c2.94043,0,5.26465,1.31641,5.26465,4.78711v9.07227h-3.38867V397.33789z
			 M423.8042,393.72656c-0.44824-0.8125-1.34375-1.31641-2.26758-1.31641c-1.25977,0-2.10059,0.89648-2.10059,2.18359
			c0,1.28906,0.84082,2.15625,2.10059,2.15625c0.92383,0,1.81934-0.44727,2.26758-1.28711V393.72656z"/>
		<path class="st3" d="M429.88037,381.1543c0-1.11914,0.92383-2.04492,2.0166-2.04492c1.11914,0,2.01562,0.92578,2.01562,2.04492
			s-0.89648,2.01562-2.01562,2.01562C430.8042,383.16992,429.88037,382.27344,429.88037,381.1543z M430.21631,385.1582h3.36035
			v13.52344h-3.36035V385.1582z"/>
		<path class="st3" d="M444.18799,389.77734c0-1.42773-0.64355-1.98633-1.76367-1.98633s-1.98828,0.86719-2.46387,1.67969v9.21094
			h-3.36035V385.1582h3.36035v1.76367c0.72754-1.06445,2.24023-2.09961,3.97559-2.09961c2.49219,0,3.6123,1.45508,3.6123,3.69531
			v10.16406h-3.36035V389.77734z"/>
		<path class="st3" d="M458.32861,396.97461c-0.83984,1.34375-2.12793,2.04297-3.41602,2.04297
			c-3.05176,0-5.0127-2.66016-5.0127-7.08398c0-4.33984,1.96094-7.11133,5.0127-7.11133c1.28809,0,2.57617,0.64453,3.41602,2.04297
			v-6.85938h3.35938v18.67578h-3.35938V396.97461z M458.32861,389.38672c-0.44824-0.89648-1.42871-1.5957-2.35254-1.5957
			c-1.70801,0-2.60352,1.76367-2.60352,4.14258c0,2.35352,0.89551,4.11719,2.60352,4.11719c0.92383,0,1.9043-0.70117,2.35254-1.5957
			V389.38672z"/>
		<path class="st3" d="M470.06104,384.82227c3.72363,0,5.82324,3.02344,5.82324,7.22461v0.95117h-8.4834
			c0.13965,1.84766,1.23145,3.30469,3.27539,3.30469c1.03613,0,2.18457-0.47656,2.94043-1.31641l1.54004,2.01562
			c-1.2041,1.31641-3.02441,2.01562-4.84375,2.01562c-3.80859,0-6.30078-2.85547-6.30078-7.11133
			C464.01221,387.98633,466.30908,384.82227,470.06104,384.82227z M467.40088,390.70312h5.23535
			c-0.05566-1.40039-0.67188-3.16406-2.63184-3.16406C468.12842,387.53906,467.45654,389.30273,467.40088,390.70312z"/>
		<path class="st3" d="M478.12451,385.1582h3.36035v1.875c0.75586-1.23047,2.24023-2.18359,3.69629-2.18359v3.27734
			c-0.22461-0.05664-0.50488-0.08398-0.8125-0.08398c-1.06348,0-2.32422,0.72656-2.88379,1.62305v9.01562h-3.36035V385.1582z"/>
		<path class="st3" d="M502.26025,395.34961h-6.10352l-0.86816,3.33203h-3.8916l5.54395-18.67578h4.53613l5.54395,18.67578h-3.89258
			L502.26025,395.34961z M496.9126,392.07422h4.5918l-2.2959-8.73633L496.9126,392.07422z"/>
		<path class="st3" d="M508.72803,388.09766h-1.73633v-2.93945h1.73633v-1.06445c0-2.77148,1.5957-4.36719,3.97559-4.36719
			c0.86816,0,1.62402,0.16797,2.21289,0.44727l-0.58887,2.54883c-0.25195-0.14062-0.55957-0.22461-0.86719-0.22461
			c-0.8125,0-1.34473,0.56055-1.34473,1.625v1.03516h2.21191v2.93945h-2.21191v10.58398h-3.3877V388.09766z"/>
		<path class="st3" d="M516.76318,395.43359v-7.33594h-1.76367v-2.93945h1.76367v-3.69531h3.36035v3.69531h2.24072v2.93945h-2.24072
			v6.55273c0,0.86719,0.33594,1.40039,0.98096,1.40039c0.41992,0,0.83984-0.16797,1.00781-0.39258l0.7002,2.57617
			c-0.50488,0.44727-1.37207,0.7832-2.60498,0.7832C517.85596,399.01758,516.76318,397.81445,516.76318,395.43359z"/>
		<path class="st3" d="M529.86816,384.82227c3.72363,0,5.82324,3.02344,5.82324,7.22461v0.95117h-8.4834
			c0.13965,1.84766,1.23145,3.30469,3.27539,3.30469c1.03613,0,2.18457-0.47656,2.94043-1.31641l1.54004,2.01562
			c-1.2041,1.31641-3.02441,2.01562-4.84375,2.01562c-3.80859,0-6.30078-2.85547-6.30078-7.11133
			C523.81934,387.98633,526.11621,384.82227,529.86816,384.82227z M527.20801,390.70312h5.23535
			c-0.05566-1.40039-0.67188-3.16406-2.63184-3.16406C527.93555,387.53906,527.26367,389.30273,527.20801,390.70312z"/>
		<path class="st3" d="M537.93164,385.1582h3.36035v1.875c0.75586-1.23047,2.24023-2.18359,3.69629-2.18359v3.27734
			c-0.22461-0.05664-0.50488-0.08398-0.8125-0.08398c-1.06348,0-2.32422,0.72656-2.88379,1.62305v9.01562h-3.36035V385.1582z"/>
		<path class="st3" d="M558.25977,384.82227c2.12793,0,3.52832,0.86719,4.31152,1.82031l-1.67969,2.32422
			c-0.61621-0.75586-1.34375-1.17578-2.26758-1.17578c-1.93262,0-3.08008,1.76367-3.08008,4.11523s1.14746,4.14453,3.08008,4.14453
			c0.92383,0,1.65137-0.41992,2.26758-1.17578l1.67969,2.32227c-0.7832,0.95312-2.18359,1.82031-4.31152,1.82031
			c-3.72363,0-6.18848-2.9668-6.18848-7.11133C552.07129,387.79102,554.53613,384.82227,558.25977,384.82227z"/>
		<path class="st3" d="M565.76367,399.85742c0.92383,1.00781,2.10059,1.48438,3.47168,1.48438
			c1.54004,0,3.02441-0.8125,3.02441-3.19141v-1.65234c-0.83984,1.34375-2.09961,2.07227-3.41602,2.07227
			c-3.02344,0-4.98438-2.43555-4.98438-6.85938c0-4.33984,1.96094-6.88867,4.98438-6.88867
			c1.31641,0,2.60449,0.64453,3.41602,2.04297v-1.70703h3.36035v12.82422c0,4.92773-3.2207,6.1875-6.21582,6.1875
			c-1.98828,0-3.58398-0.47656-4.98438-1.73633L565.76367,399.85742z M572.25977,389.38672
			c-0.41992-0.89648-1.40039-1.5957-2.32422-1.5957c-1.70801,0-2.60352,1.56641-2.60352,3.91992
			c0,2.35156,0.89551,3.89062,2.60352,3.89062c0.92383,0,1.9043-0.69922,2.32422-1.56836V389.38672z"/>
		<path class="st3" d="M578.67188,385.1582h3.36035v1.875c0.75586-1.23047,2.24023-2.18359,3.69629-2.18359v3.27734
			c-0.22461-0.05664-0.50488-0.08398-0.8125-0.08398c-1.06348,0-2.32422,0.72656-2.88379,1.62305v9.01562h-3.36035V385.1582z"/>
		<path class="st3" d="M586.93164,391.90625c0-3.7793,2.12891-7.08398,6.10449-7.08398c4.03223,0,6.13184,3.30469,6.13184,7.08398
			c0,3.80859-2.09961,7.11133-6.13184,7.11133C589.06055,399.01758,586.93164,395.71484,586.93164,391.90625z M595.69629,391.90625
			c0-2.21289-0.8125-4.11523-2.66016-4.11523c-1.79199,0-2.60449,1.90234-2.60449,4.11523c0,2.24023,0.8125,4.14453,2.60449,4.14453
			C594.88379,396.05078,595.69629,394.14648,595.69629,391.90625z"/>
		<path class="st3" d="M609.08008,396.97461c-0.72754,1.06445-2.21191,2.04297-3.97559,2.04297
			c-2.49219,0-3.6123-1.37109-3.6123-3.63867v-10.2207h3.36035v8.93164c0,1.42773,0.67188,1.96094,1.79199,1.96094
			c1.0918,0,1.95996-0.8125,2.43555-1.65234v-9.24023h3.36035v13.52344h-3.36035V396.97461z"/>
		<path class="st3" d="M615.46387,403.83398V385.1582h3.36035v1.70703c0.83984-1.34375,2.09961-2.04297,3.41602-2.04297
			c3.05176,0,5.01172,2.66016,5.01172,7.08398c0,4.39648-1.95996,7.11133-5.01172,7.11133
			c-1.28809,0-2.57617-0.64258-3.41602-2.04297v6.85938H615.46387z M621.14844,387.79102
			c-0.89648,0-1.87598,0.67188-2.32422,1.56641v5.09766c0.44824,0.86719,1.42773,1.5957,2.32422,1.5957
			c1.73535,0,2.63184-1.76367,2.63184-4.14453C623.78027,389.55469,622.88379,387.79102,621.14844,387.79102z"/>
		<path class="st3" d="M644.75195,395.34961h-6.10352l-0.86816,3.33203h-3.8916l5.54395-18.67578h4.53613l5.54395,18.67578h-3.89258
			L644.75195,395.34961z M639.4043,392.07422h4.5918l-2.2959-8.73633L639.4043,392.07422z"/>
		<path class="st3" d="M650.96777,380.00586h3.36035v18.67578h-3.36035V380.00586z"/>
		<path class="st3" d="M657.35156,380.00586h3.36035v18.67578h-3.36035V380.00586z"/>
		<path class="st3" d="M663.03516,391.90625c0-3.7793,2.12891-7.08398,6.10449-7.08398c4.03223,0,6.13184,3.30469,6.13184,7.08398
			c0,3.80859-2.09961,7.11133-6.13184,7.11133C665.16406,399.01758,663.03516,395.71484,663.03516,391.90625z M671.7998,391.90625
			c0-2.21289-0.8125-4.11523-2.66016-4.11523c-1.79199,0-2.60449,1.90234-2.60449,4.11523c0,2.24023,0.8125,4.14453,2.60449,4.14453
			C670.9873,396.05078,671.7998,394.14648,671.7998,391.90625z"/>
		<path class="st3" d="M683.08398,384.82227c2.12793,0,3.52832,0.86719,4.31152,1.82031l-1.67969,2.32422
			c-0.61621-0.75586-1.34375-1.17578-2.26758-1.17578c-1.93262,0-3.08008,1.76367-3.08008,4.11523s1.14746,4.14453,3.08008,4.14453
			c0.92383,0,1.65137-0.41992,2.26758-1.17578l1.67969,2.32227c-0.7832,0.95312-2.18359,1.82031-4.31152,1.82031
			c-3.72363,0-6.18848-2.9668-6.18848-7.11133C676.89551,387.79102,679.36035,384.82227,683.08398,384.82227z"/>
		<path class="st3" d="M696.38379,397.33789c-0.75586,1.06445-2.18359,1.67969-3.55566,1.67969
			c-2.12793,0-4.17188-1.5957-4.17188-4.47852c0-2.96875,2.04395-4.36914,4.17188-4.36914c1.40039,0,2.82812,0.5332,3.55566,1.5957
			v-1.79102c0-1.45703-0.89551-2.35156-2.49219-2.35156c-1.17578,0-2.32324,0.47461-3.33203,1.45508l-1.25977-2.29688
			c1.42871-1.37109,3.47266-1.95898,5.20801-1.95898c2.94043,0,5.26465,1.31641,5.26465,4.78711v9.07227h-3.38867V397.33789z
			 M696.38379,393.72656c-0.44727-0.8125-1.34375-1.31641-2.26758-1.31641c-1.25977,0-2.10059,0.89648-2.10059,2.18359
			c0,1.28906,0.84082,2.15625,2.10059,2.15625c0.92383,0,1.82031-0.44727,2.26758-1.28711V393.72656z"/>
		<path class="st3" d="M703.38379,395.43359v-7.33594h-1.76367v-2.93945h1.76367v-3.69531h3.36035v3.69531h2.24023v2.93945h-2.24023
			v6.55273c0,0.86719,0.33594,1.40039,0.98047,1.40039c0.41992,0,0.83984-0.16797,1.00781-0.39258l0.7002,2.57617
			c-0.50488,0.44727-1.37207,0.7832-2.60449,0.7832C704.47656,399.01758,703.38379,397.81445,703.38379,395.43359z"/>
		<path class="st3" d="M710.80371,381.1543c0-1.11914,0.92383-2.04492,2.0166-2.04492c1.11914,0,2.01562,0.92578,2.01562,2.04492
			s-0.89648,2.01562-2.01562,2.01562C711.72754,383.16992,710.80371,382.27344,710.80371,381.1543z M711.13965,385.1582H714.5
			v13.52344h-3.36035V385.1582z"/>
		<path class="st3" d="M716.82324,391.90625c0-3.7793,2.12891-7.08398,6.10449-7.08398c4.03223,0,6.13184,3.30469,6.13184,7.08398
			c0,3.80859-2.09961,7.11133-6.13184,7.11133C718.95215,399.01758,716.82324,395.71484,716.82324,391.90625z M725.58789,391.90625
			c0-2.21289-0.8125-4.11523-2.66016-4.11523c-1.79199,0-2.60449,1.90234-2.60449,4.11523c0,2.24023,0.8125,4.14453,2.60449,4.14453
			C724.77539,396.05078,725.58789,394.14648,725.58789,391.90625z"/>
		<path class="st3" d="M738.9707,389.77734c0-1.42773-0.64355-1.98633-1.76367-1.98633s-1.98828,0.86719-2.46387,1.67969v9.21094
			h-3.36035V385.1582h3.36035v1.76367c0.72754-1.06445,2.24023-2.09961,3.97559-2.09961c2.49219,0,3.6123,1.45508,3.6123,3.69531
			v10.16406h-3.36035V389.77734z"/>
	</g>
	<g>
		<path class="st3" d="M130.34033,424.37695l-3.8877,11.64062h-1.03223l-3.84082-11.64062v11.64062h-2.66406v-16.00977h3.60059
			l3.43164,10.3457l3.45703-10.3457h3.57617v16.00977h-2.64062V424.37695z"/>
		<path class="st3" d="M140.30029,424.13672c3.14453,0,4.82422,2.66406,4.82422,6.16797v0.69629h-7.36816
			c0.0957,1.89648,1.15137,3.33691,3.02344,3.33691c0.91211,0,1.94434-0.45605,2.61621-1.24902l1.15234,1.44043
			c-0.9834,1.12793-2.44824,1.77637-4.00781,1.77637c-3.19238,0-5.20898-2.49609-5.20898-6.09668
			C135.33154,426.84863,137.20361,424.13672,140.30029,424.13672z M137.73193,429.29688h5.06445
			c-0.02441-1.44043-0.67188-3.21582-2.52051-3.21582C138.47607,426.08105,137.8042,427.90527,137.73193,429.29688z"/>
		<path class="st3" d="M159.38037,427.95312c0-1.08008-0.43164-1.7041-1.43945-1.7041c-0.95996,0-1.82422,0.83984-2.20801,1.60742
			v8.16113h-2.40039v-8.06445c0-1.05664-0.43262-1.7041-1.44043-1.7041c-0.95996,0-1.7998,0.83984-2.20801,1.60742v8.16113h-2.40039
			V424.4248h2.40039v1.55957c0.45605-0.81543,1.77637-1.84766,3.21582-1.84766c1.46484,0,2.44824,0.74414,2.71289,2.04004
			c0.55176-1.03223,1.89551-2.04004,3.33594-2.04004c1.75195,0,2.83203,0.93555,2.83203,3.04785v8.83301h-2.40039V427.95312z"/>
		<path class="st3" d="M164.03564,430.20898c0-3.26465,1.72852-6.07227,5.0166-6.07227s5.0166,2.80762,5.0166,6.07227
			s-1.72852,6.09668-5.0166,6.09668S164.03564,433.47363,164.03564,430.20898z M171.59619,430.20898
			c0-2.08789-0.79199-3.95996-2.54395-3.95996s-2.54395,1.87207-2.54395,3.95996s0.79199,3.98438,2.54395,3.98438
			S171.59619,432.29688,171.59619,430.20898z"/>
		<path class="st3" d="M176.32373,424.4248h2.40039v1.7041c0.67188-1.12793,1.89648-1.96875,3.19238-1.96875v2.37695
			c-0.19238-0.04883-0.4082-0.07227-0.62402-0.07227c-0.98438,0-2.08887,0.74414-2.56836,1.6084v7.94434h-2.40039V424.4248z"/>
		<path class="st3" d="M184.43506,438.60938c0.64844,0,1.05664-0.23926,1.32031-0.95996l0.48047-1.3916l-3.88867-11.83301h2.54395
			l2.56836,8.71289l2.59277-8.71289h2.54395l-4.58398,13.77734c-0.64844,1.94336-1.77637,2.51953-3.4082,2.51953
			c-0.36035,0-0.98438-0.07129-1.29688-0.16797l0.36035-2.1123C183.8833,438.56152,184.21924,438.60938,184.43506,438.60938z"/>
	</g>
	<g>
		<path class="st3" d="M374.11182,427.99805c0-4.82422,2.51953-8.28125,6.45605-8.28125c2.85645,0,4.29688,1.75195,5.13672,3.5293
			l-2.20801,0.98438c-0.55273-1.27344-1.53613-2.16016-2.92871-2.16016c-2.28027,0-3.74414,2.49609-3.74414,5.92773
			c0,3.4082,1.46387,5.9043,3.74414,5.9043c1.46387,0,2.44824-1.00781,2.95215-2.35156l2.20801,0.98438
			c-0.81543,1.87109-2.25586,3.74414-5.16016,3.74414C376.63135,436.2793,374.11182,432.79883,374.11182,427.99805z"/>
		<path class="st3" d="M387.83936,419.98047h5.44824c3.14453,0,4.72852,2.30469,4.72852,4.96875
			c0,2.68945-1.58398,4.99219-4.72852,4.99219h-2.78418v6.04883h-2.66406V419.98047z M392.97607,422.30859h-2.47266v5.28125h2.47266
			c1.41602,0,2.32812-1.05664,2.32812-2.64062S394.39209,422.30859,392.97607,422.30859z"/>
		<path class="st3" d="M400.15088,419.98047h2.66406v10.6582c0,2.13672,1.05664,3.28711,2.9043,3.28711
			c1.84863,0,2.9043-1.15039,2.9043-3.28711v-10.6582h2.66406v10.63281c0,3.625-2.1123,5.66602-5.56836,5.66602
			s-5.56836-2.04102-5.56836-5.66602V419.98047z"/>
	</g>
	<g>
		<path class="st3" d="M595.98535,424.92578v11.06445h-2.66406v-16.00977h2.68848l5.78418,10.6582v-10.6582h2.66406v16.00977
			h-2.54395L595.98535,424.92578z"/>
		<path class="st3" d="M611.80176,424.10938c3.14453,0,4.82422,2.66406,4.82422,6.16797v0.69727h-7.36816
			c0.0957,1.89648,1.15137,3.33594,3.02344,3.33594c0.91211,0,1.94434-0.45508,2.61621-1.24805l1.15234,1.43945
			c-0.9834,1.12891-2.44824,1.77734-4.00781,1.77734c-3.19238,0-5.20898-2.49609-5.20898-6.09766
			C606.83301,426.82227,608.70508,424.10938,611.80176,424.10938z M609.2334,429.26953h5.06445
			c-0.02441-1.43945-0.67188-3.21484-2.52051-3.21484C609.97754,426.05469,609.30566,427.87891,609.2334,429.26953z"/>
		<path class="st3" d="M619.21777,433.39844v-6.91211h-1.5127v-2.08789h1.5127v-3.16992h2.39941v3.16992h1.9209v2.08789h-1.9209
			v6.4082c0,0.79102,0.26465,1.27148,0.88867,1.27148c0.38379,0,0.74414-0.16797,0.91211-0.38281l0.57617,1.79883
			c-0.43262,0.43359-1.10449,0.69727-2.08887,0.69727C620.08105,436.2793,619.21777,435.29492,619.21777,433.39844z"/>
		<path class="st3" d="M632.17773,427.4707l-2.25586,8.51953h-2.49609l-3.09668-11.5918h2.47266l2.01562,8.44727l2.20801-8.44727
			h2.20898l2.25586,8.44727l2.04004-8.44727h2.47266l-3.09668,11.5918h-2.49609L632.17773,427.4707z"/>
		<path class="st3" d="M641.00879,430.18164c0-3.26367,1.72852-6.07227,5.0166-6.07227s5.0166,2.80859,5.0166,6.07227
			c0,3.26562-1.72852,6.09766-5.0166,6.09766S641.00879,433.44727,641.00879,430.18164z M648.56934,430.18164
			c0-2.08789-0.79199-3.95898-2.54395-3.95898s-2.54395,1.87109-2.54395,3.95898s0.79199,3.98438,2.54395,3.98438
			S648.56934,432.26953,648.56934,430.18164z"/>
		<path class="st3" d="M653.29688,424.39844h2.40039v1.70312c0.67188-1.12695,1.89648-1.96875,3.19238-1.96875v2.37695
			c-0.19238-0.04883-0.4082-0.07227-0.62402-0.07227c-0.98438,0-2.08887,0.74414-2.56836,1.60938v7.94336h-2.40039V424.39844z"/>
		<path class="st3" d="M664.48047,431.14258l-1.3916,1.87109v2.97656h-2.40039v-16.00977h2.40039v10.10547l4.08008-5.6875h2.78418
			l-3.83984,5.20703l3.91211,6.38477h-2.80859L664.48047,431.14258z"/>
	</g>
	<g>
		<path class="st3" d="M857.13086,420.00781h2.66406v16.00977h-2.66406V420.00781z"/>
		<path class="st3" d="M865.93945,419.52832h1.77637l-4.6084,16.96973h-1.77637L865.93945,419.52832z"/>
		<path class="st3" d="M875.05957,419.74414c4.05664,0,6.4082,3.57617,6.4082,8.28027c0,4.70508-2.35156,8.28125-6.4082,8.28125
			s-6.4082-3.57617-6.4082-8.28125C868.65137,423.32031,871.00293,419.74414,875.05957,419.74414z M875.05957,422.09668
			c-2.40039,0-3.69629,2.56836-3.69629,5.92773c0,3.3125,1.2959,5.90527,3.69629,5.90527c2.37598,0,3.69629-2.59277,3.69629-5.90527
			C878.75586,424.66504,877.43555,422.09668,875.05957,422.09668z"/>
	</g>
	<g>
		<path class="st3" d="M130.34033,104.3877l-3.8877,11.64062h-1.03223l-3.84082-11.64062v11.64062h-2.66406v-16.00977h3.60059
			l3.43164,10.3457l3.45703-10.3457h3.57617v16.00977h-2.64062V104.3877z"/>
		<path class="st3" d="M140.30029,104.14746c3.14453,0,4.82422,2.66406,4.82422,6.16797v0.69629h-7.36816
			c0.0957,1.89648,1.15137,3.33691,3.02344,3.33691c0.91211,0,1.94434-0.45605,2.61621-1.24902l1.15234,1.44043
			c-0.9834,1.12793-2.44824,1.77637-4.00781,1.77637c-3.19238,0-5.20898-2.49609-5.20898-6.09668
			C135.33154,106.85938,137.20361,104.14746,140.30029,104.14746z M137.73193,109.30762h5.06445
			c-0.02441-1.44043-0.67188-3.21582-2.52051-3.21582C138.47607,106.0918,137.8042,107.91602,137.73193,109.30762z"/>
		<path class="st3" d="M159.38037,107.96387c0-1.08008-0.43164-1.7041-1.43945-1.7041c-0.95996,0-1.82422,0.83984-2.20801,1.60742
			v8.16113h-2.40039v-8.06445c0-1.05664-0.43262-1.7041-1.44043-1.7041c-0.95996,0-1.7998,0.83984-2.20801,1.60742v8.16113h-2.40039
			v-11.59277h2.40039v1.55957c0.45605-0.81543,1.77637-1.84766,3.21582-1.84766c1.46484,0,2.44824,0.74414,2.71289,2.04004
			c0.55176-1.03223,1.89551-2.04004,3.33594-2.04004c1.75195,0,2.83203,0.93555,2.83203,3.04785v8.83301h-2.40039V107.96387z"/>
		<path class="st3" d="M164.03564,110.21973c0-3.26465,1.72852-6.07227,5.0166-6.07227s5.0166,2.80762,5.0166,6.07227
			s-1.72852,6.09668-5.0166,6.09668S164.03564,113.48438,164.03564,110.21973z M171.59619,110.21973
			c0-2.08789-0.79199-3.95996-2.54395-3.95996s-2.54395,1.87207-2.54395,3.95996s0.79199,3.98438,2.54395,3.98438
			S171.59619,112.30762,171.59619,110.21973z"/>
		<path class="st3" d="M176.32373,104.43555h2.40039v1.7041c0.67188-1.12793,1.89648-1.96875,3.19238-1.96875v2.37695
			c-0.19238-0.04883-0.4082-0.07227-0.62402-0.07227c-0.98438,0-2.08887,0.74414-2.56836,1.6084v7.94434h-2.40039V104.43555z"/>
		<path class="st3" d="M184.43506,118.62012c0.64844,0,1.05664-0.23926,1.32031-0.95996l0.48047-1.3916l-3.88867-11.83301h2.54395
			l2.56836,8.71289l2.59277-8.71289h2.54395l-4.58398,13.77734c-0.64844,1.94336-1.77637,2.51953-3.4082,2.51953
			c-0.36035,0-0.98438-0.07129-1.29688-0.16797l0.36035-2.1123C183.8833,118.57227,184.21924,118.62012,184.43506,118.62012z"/>
	</g>
	<g>
		<path class="st3" d="M374.11182,108.00781c0-4.82422,2.51953-8.2793,6.45605-8.2793c2.85645,0,4.29688,1.75195,5.13672,3.52734
			l-2.20801,0.98438c-0.55273-1.27148-1.53613-2.16016-2.92871-2.16016c-2.28027,0-3.74414,2.49609-3.74414,5.92773
			c0,3.41016,1.46387,5.90625,3.74414,5.90625c1.46387,0,2.44824-1.00977,2.95215-2.35352l2.20801,0.98438
			c-0.81543,1.87305-2.25586,3.74414-5.16016,3.74414C376.63135,116.28906,374.11182,112.80859,374.11182,108.00781z"/>
		<path class="st3" d="M387.83936,99.99219h5.44824c3.14453,0,4.72852,2.30469,4.72852,4.96875
			c0,2.6875-1.58398,4.99219-4.72852,4.99219h-2.78418v6.04883h-2.66406V99.99219z M392.97607,102.32031h-2.47266v5.28125h2.47266
			c1.41602,0,2.32812-1.05664,2.32812-2.64062S394.39209,102.32031,392.97607,102.32031z"/>
		<path class="st3" d="M400.15088,99.99219h2.66406v10.65625c0,2.13672,1.05664,3.28906,2.9043,3.28906
			c1.84863,0,2.9043-1.15234,2.9043-3.28906V99.99219h2.66406V110.625c0,3.625-2.1123,5.66406-5.56836,5.66406
			s-5.56836-2.03906-5.56836-5.66406V99.99219z"/>
	</g>
	<g>
		<path class="st3" d="M595.98535,104.93555v11.06641h-2.66406V99.99219h2.68848l5.78418,10.65625V99.99219h2.66406v16.00977
			h-2.54395L595.98535,104.93555z"/>
		<path class="st3" d="M611.80176,104.12109c3.14453,0,4.82422,2.66406,4.82422,6.16797v0.69531h-7.36816
			c0.0957,1.89648,1.15137,3.33789,3.02344,3.33789c0.91211,0,1.94434-0.45703,2.61621-1.25l1.15234,1.44141
			c-0.9834,1.12695-2.44824,1.77539-4.00781,1.77539c-3.19238,0-5.20898-2.49609-5.20898-6.0957
			C606.83301,106.83203,608.70508,104.12109,611.80176,104.12109z M609.2334,109.28125h5.06445
			c-0.02441-1.44141-0.67188-3.2168-2.52051-3.2168C609.97754,106.06445,609.30566,107.88867,609.2334,109.28125z"/>
		<path class="st3" d="M619.21777,113.41016v-6.91406h-1.5127v-2.08789h1.5127v-3.16797h2.39941v3.16797h1.9209v2.08789h-1.9209
			v6.4082c0,0.79297,0.26465,1.27344,0.88867,1.27344c0.38379,0,0.74414-0.16797,0.91211-0.38477l0.57617,1.80078
			c-0.43262,0.43164-1.10449,0.69531-2.08887,0.69531C620.08105,116.28906,619.21777,115.30469,619.21777,113.41016z"/>
		<path class="st3" d="M632.17773,107.48047l-2.25586,8.52148h-2.49609l-3.09668-11.59375h2.47266l2.01562,8.44922l2.20801-8.44922
			h2.20898l2.25586,8.44922l2.04004-8.44922h2.47266l-3.09668,11.59375h-2.49609L632.17773,107.48047z"/>
		<path class="st3" d="M641.00879,110.19336c0-3.26562,1.72852-6.07227,5.0166-6.07227s5.0166,2.80664,5.0166,6.07227
			c0,3.26367-1.72852,6.0957-5.0166,6.0957S641.00879,113.45703,641.00879,110.19336z M648.56934,110.19336
			c0-2.08789-0.79199-3.96094-2.54395-3.96094s-2.54395,1.87305-2.54395,3.96094s0.79199,3.98438,2.54395,3.98438
			S648.56934,112.28125,648.56934,110.19336z"/>
		<path class="st3" d="M653.29688,104.4082h2.40039v1.70508c0.67188-1.12891,1.89648-1.96875,3.19238-1.96875v2.37695
			c-0.19238-0.04883-0.4082-0.07227-0.62402-0.07227c-0.98438,0-2.08887,0.74414-2.56836,1.60742v7.94531h-2.40039V104.4082z"/>
		<path class="st3" d="M664.48047,111.15234l-1.3916,1.87305v2.97656h-2.40039V99.99219h2.40039v10.10547l4.08008-5.68945h2.78418
			l-3.83984,5.20898l3.91211,6.38477h-2.80859L664.48047,111.15234z"/>
	</g>
	<g>
		<path class="st3" d="M857.13086,100.01855h2.66406v16.00977h-2.66406V100.01855z"/>
		<path class="st3" d="M865.93945,99.53906h1.77637l-4.6084,16.96973h-1.77637L865.93945,99.53906z"/>
		<path class="st3" d="M875.05957,99.75488c4.05664,0,6.4082,3.57617,6.4082,8.28027c0,4.70508-2.35156,8.28125-6.4082,8.28125
			s-6.4082-3.57617-6.4082-8.28125C868.65137,103.33105,871.00293,99.75488,875.05957,99.75488z M875.05957,102.10742
			c-2.40039,0-3.69629,2.56836-3.69629,5.92773c0,3.3125,1.2959,5.90527,3.69629,5.90527c2.37598,0,3.69629-2.59277,3.69629-5.90527
			C878.75586,104.67578,877.43555,102.10742,875.05957,102.10742z"/>
	</g>
	<path class="st4" d="M318.00006,521.02942c0,41.42139,33.57864,75,75,75s75-33.57861,75-75s-33.57864-75-75-75v75H318.00006z"/>
	<path class="st5" d="M80.00005,521.02948c0,41.42133,33.57864,75,74.99999,75s75-33.57867,75-75
		c0-41.42139-33.57864-75.00003-75-75.00003v75.00003H80.00005z"/>
	<g>
		<path class="st3" d="M139.14062,297.53809c4.66016-4.86035,5.88086-6.16113,5.88086-7.86133
			c0-1.2002-0.88086-1.91992-1.9209-1.91992c-1.21973,0-2.16016,0.58008-2.84082,1.58008l-1.35938-1.38086
			c1-1.40039,2.44043-2.16016,4.2207-2.16016c2.33984,0,4.16016,1.45996,4.16016,3.86133c0,2.12012-1.5,3.95996-4.90039,7.72168
			h4.96094v1.95996h-8.20117V297.53809z"/>
		<path class="st3" d="M150.58008,296.03809c0.67969,1,1.58008,1.56055,2.80078,1.56055c1.35938,0,2.17969-1.12012,2.17969-2.44043
			c0-1.56055-0.78027-2.46094-2.08008-2.46094c-0.90039,0-1.60059,0.33984-2.28027,1.16016l-1.62012-0.45996v-7.40137h7.48145
			v1.94043h-5.26172v3.96094c0.5-0.64062,1.40039-1.12012,2.44043-1.12012c1.98047,0,3.56152,1.54004,3.56152,4.32031
			c0,2.62109-1.74121,4.48145-4.36133,4.48145c-2.02051,0-3.32031-0.80078-4.24121-2.14062L150.58008,296.03809z"/>
		<path class="st3" d="M162,285.7959c1.76074,0,2.9209,1.44043,2.9209,3.32031c0,1.86133-1.16016,3.28125-2.9209,3.28125
			c-1.75977,0-2.91992-1.41992-2.91992-3.28125C159.08008,287.23633,160.24023,285.7959,162,285.7959z M162,287.07617
			c-0.89941,0-1.48047,0.82031-1.48047,2.04004c0,1.18066,0.58105,2.02051,1.48047,2.02051
			c0.90039,0,1.48047-0.83984,1.48047-2.02051C163.48047,287.89648,162.90039,287.07617,162,287.07617z M168.16211,285.99609
			h1.13965l-7.04102,13.34277h-1.12109L168.16211,285.99609z M168.38184,292.95703c1.75977,0,2.9209,1.46094,2.9209,3.34082
			c0,1.86035-1.16113,3.28125-2.9209,3.28125c-1.76074,0-2.90039-1.4209-2.90039-3.28125
			C165.48145,294.41797,166.62109,292.95703,168.38184,292.95703z M168.38184,294.2373c-0.90039,0-1.48047,0.84082-1.48047,2.06055
			c0,1.18066,0.58008,2.00098,1.48047,2.00098s1.5-0.82031,1.5-2.00098C169.88184,295.07812,169.28223,294.2373,168.38184,294.2373z
			"/>
	</g>
	<g>
		<path class="st3" d="M377.13965,297.53809c4.66113-4.86035,5.88184-6.16113,5.88184-7.86133
			c0-1.2002-0.88086-1.91992-1.9209-1.91992c-1.21973,0-2.16016,0.58008-2.84082,1.58008l-1.36035-1.38086
			c1.00098-1.40039,2.44141-2.16016,4.22168-2.16016c2.33984,0,4.16016,1.45996,4.16016,3.86133
			c0,2.12012-1.5,3.95996-4.90039,7.72168h4.96094v1.95996h-8.20215V297.53809z"/>
		<path class="st3" d="M388.58008,296.03809c0.67969,1,1.58008,1.56055,2.80078,1.56055c1.35938,0,2.17969-1.12012,2.17969-2.44043
			c0-1.56055-0.78027-2.46094-2.08008-2.46094c-0.90039,0-1.60059,0.33984-2.28027,1.16016l-1.62012-0.45996v-7.40137h7.48145
			v1.94043h-5.26172v3.96094c0.5-0.64062,1.40039-1.12012,2.44043-1.12012c1.98047,0,3.56152,1.54004,3.56152,4.32031
			c0,2.62109-1.74121,4.48145-4.36133,4.48145c-2.02051,0-3.32031-0.80078-4.24121-2.14062L388.58008,296.03809z"/>
		<path class="st3" d="M400,285.7959c1.76074,0,2.9209,1.44043,2.9209,3.32031c0,1.86133-1.16016,3.28125-2.9209,3.28125
			c-1.75977,0-2.91992-1.41992-2.91992-3.28125C397.08008,287.23633,398.24023,285.7959,400,285.7959z M400,287.07617
			c-0.89941,0-1.48047,0.82031-1.48047,2.04004c0,1.18066,0.58105,2.02051,1.48047,2.02051
			c0.90039,0,1.48047-0.83984,1.48047-2.02051C401.48047,287.89648,400.90039,287.07617,400,287.07617z M406.16211,285.99609
			h1.13965l-7.04102,13.34277h-1.12109L406.16211,285.99609z M406.38184,292.95703c1.75977,0,2.9209,1.46094,2.9209,3.34082
			c0,1.86035-1.16113,3.28125-2.9209,3.28125c-1.76074,0-2.90039-1.4209-2.90039-3.28125
			C403.48145,294.41797,404.62109,292.95703,406.38184,292.95703z M406.38184,294.2373c-0.90039,0-1.48047,0.84082-1.48047,2.06055
			c0,1.18066,0.58008,2.00098,1.48047,2.00098s1.5-0.82031,1.5-2.00098C407.88184,295.07812,407.28223,294.2373,406.38184,294.2373z
			"/>
	</g>
	<g>
		<path class="st3" d="M854.25098,296.03809c0.67969,1,1.58008,1.56055,2.80078,1.56055c1.35938,0,2.17969-1.12012,2.17969-2.44043
			c0-1.56055-0.78027-2.46094-2.08008-2.46094c-0.90039,0-1.60059,0.33984-2.28027,1.16016l-1.62012-0.45996v-7.40137h7.48145
			v1.94043h-5.26172v3.96094c0.5-0.64062,1.40039-1.12012,2.44043-1.12012c1.98047,0,3.56152,1.54004,3.56152,4.32031
			c0,2.62109-1.74121,4.48145-4.36133,4.48145c-2.02051,0-3.32031-0.80078-4.24121-2.14062L854.25098,296.03809z"/>
		<path class="st3" d="M867.49121,285.7959c3.24121,0,4.50098,3.18066,4.50098,6.88184c0,3.68066-1.25977,6.90137-4.50098,6.90137
			c-3.2207,0-4.48047-3.2207-4.48047-6.90137C863.01074,288.97656,864.27051,285.7959,867.49121,285.7959z M867.49121,287.75684
			c-1.75977,0-2.21973,2.32031-2.21973,4.9209c0,2.58008,0.45996,4.9209,2.21973,4.9209c1.78027,0,2.24121-2.34082,2.24121-4.9209
			C869.73242,290.07715,869.27148,287.75684,867.49121,287.75684z"/>
		<path class="st3" d="M876.19043,285.7959c1.76074,0,2.9209,1.44043,2.9209,3.32031c0,1.86133-1.16016,3.28125-2.9209,3.28125
			c-1.75977,0-2.91992-1.41992-2.91992-3.28125C873.27051,287.23633,874.43066,285.7959,876.19043,285.7959z M876.19043,287.07617
			c-0.89941,0-1.48047,0.82031-1.48047,2.04004c0,1.18066,0.58105,2.02051,1.48047,2.02051
			c0.90039,0,1.48047-0.83984,1.48047-2.02051C877.6709,287.89648,877.09082,287.07617,876.19043,287.07617z M882.35156,285.99609
			h1.14062l-7.04102,13.34277h-1.12109L882.35156,285.99609z M882.57227,292.95703c1.75977,0,2.9209,1.46094,2.9209,3.34082
			c0,1.86035-1.16113,3.28125-2.9209,3.28125c-1.76074,0-2.90039-1.4209-2.90039-3.28125
			C879.67188,294.41797,880.81152,292.95703,882.57227,292.95703z M882.57227,294.2373c-0.90039,0-1.48047,0.84082-1.48047,2.06055
			c0,1.18066,0.58008,2.00098,1.48047,2.00098s1.5-0.82031,1.5-2.00098C884.07227,295.07812,883.47266,294.2373,882.57227,294.2373z
			"/>
	</g>
	<g>
		<path class="st3" d="M616.29102,296.01855c0.66016,0.93945,1.67969,1.58008,2.86035,1.58008c1.5,0,2.2002-0.83984,2.2002-2.10059
			c0-1.5-1-2-2.32031-2c-0.41992,0-0.98047,0-1.16016,0.04004v-2.00098c0.2002,0.02051,0.78027,0.02051,1.12012,0.02051
			c1.25977,0,2.18066-0.60059,2.18066-1.84082c0-1.32031-0.86035-1.95996-2.08105-1.95996c-1.12012,0-2,0.54004-2.68066,1.43945
			l-1.2998-1.28027c0.87988-1.2998,2.32031-2.12012,4.14062-2.12012c2.4209,0,4.12109,1.2207,4.12109,3.58105
			c0,1.58008-1.14062,2.78027-2.46094,3.06055c1.28027,0.2002,2.64062,1.40039,2.64062,3.26074
			c0,2.26074-1.62012,3.88086-4.30078,3.88086c-2.04004,0-3.54004-0.98047-4.32031-2.18066L616.29102,296.01855z"/>
		<path class="st3" d="M626.21094,296.01855c0.66016,0.93945,1.67969,1.58008,2.86035,1.58008c1.5,0,2.2002-0.83984,2.2002-2.10059
			c0-1.5-1-2-2.32031-2c-0.41992,0-0.98047,0-1.16016,0.04004v-2.00098c0.2002,0.02051,0.78027,0.02051,1.12012,0.02051
			c1.25977,0,2.18066-0.60059,2.18066-1.84082c0-1.32031-0.86035-1.95996-2.08105-1.95996c-1.12012,0-2,0.54004-2.68066,1.43945
			l-1.2998-1.28027c0.87988-1.2998,2.32031-2.12012,4.14062-2.12012c2.4209,0,4.12109,1.2207,4.12109,3.58105
			c0,1.58008-1.14062,2.78027-2.46094,3.06055c1.28027,0.2002,2.64062,1.40039,2.64062,3.26074
			c0,2.26074-1.62012,3.88086-4.30078,3.88086c-2.04004,0-3.54004-0.98047-4.32031-2.18066L626.21094,296.01855z"/>
		<path class="st3" d="M637.73047,285.7959c1.76074,0,2.9209,1.44043,2.9209,3.32031c0,1.86133-1.16016,3.28125-2.9209,3.28125
			c-1.75977,0-2.91992-1.41992-2.91992-3.28125C634.81055,287.23633,635.9707,285.7959,637.73047,285.7959z M637.73047,287.07617
			c-0.89941,0-1.48047,0.82031-1.48047,2.04004c0,1.18066,0.58105,2.02051,1.48047,2.02051
			c0.90039,0,1.48047-0.83984,1.48047-2.02051C639.21094,287.89648,638.63086,287.07617,637.73047,287.07617z M643.89258,285.99609
			h1.13965l-7.04102,13.34277h-1.12109L643.89258,285.99609z M644.1123,292.95703c1.75977,0,2.9209,1.46094,2.9209,3.34082
			c0,1.86035-1.16113,3.28125-2.9209,3.28125c-1.76074,0-2.90039-1.4209-2.90039-3.28125
			C641.21191,294.41797,642.35156,292.95703,644.1123,292.95703z M644.1123,294.2373c-0.90039,0-1.48047,0.84082-1.48047,2.06055
			c0,1.18066,0.58008,2.00098,1.48047,2.00098s1.5-0.82031,1.5-2.00098C645.6123,295.07812,645.0127,294.2373,644.1123,294.2373z"/>
	</g>
	<circle class="st0" cx="869" cy="201.00604" r="75"/>
	<path class="st6" d="M869,276.00604c41.42139,0,75-33.57864,75-75s-33.57861-74.99999-75-74.99999V276.00604z"/>
	<circle class="st0" cx="631" cy="201.00604" r="75"/>
	<path class="st7" d="M631,126.00605c41.42139,0,75,33.57864,75,74.99999c0,13.66336-3.65369,26.47336-10.03729,37.50627
		L631,201.00604l0.00006-74.99999H631z"/>
	<circle class="st0" cx="155" cy="201.00604" r="75"/>
	<path class="st5" d="M155,126.00605c-41.42133,0-75,33.57861-75,74.99999h75V126.00605z"/>
	<circle class="st0" cx="393" cy="201.00604" r="75"/>
	<path class="st4" d="M393,126.00605c-41.42133,0-75,33.57861-75,74.99999h75V126.00605z"/>
	<g>
		<path class="st3" d="M144.81055,607.9668h-5.58105v-1.94043h8.08203v1.52051l-4.20117,11.82227h-2.38086L144.81055,607.9668z"/>
		<path class="st3" d="M149.99023,616.06836c0.67969,1,1.58008,1.56055,2.80078,1.56055c1.35938,0,2.17969-1.12012,2.17969-2.44043
			c0-1.56055-0.78027-2.46094-2.08008-2.46094c-0.90039,0-1.60059,0.33984-2.28027,1.16016l-1.62012-0.45996v-7.40137h7.48145
			v1.94043h-5.26172v3.96094c0.5-0.64062,1.40039-1.12012,2.44043-1.12012c1.98047,0,3.56152,1.54004,3.56152,4.32031
			c0,2.62109-1.74121,4.48145-4.36133,4.48145c-2.02051,0-3.32031-0.80078-4.24121-2.14062L149.99023,616.06836z"/>
		<path class="st3" d="M161.41016,605.82617c1.76074,0,2.9209,1.44043,2.9209,3.32031c0,1.86133-1.16016,3.28125-2.9209,3.28125
			c-1.75977,0-2.91992-1.41992-2.91992-3.28125C158.49023,607.2666,159.65039,605.82617,161.41016,605.82617z M161.41016,607.10645
			c-0.89941,0-1.48047,0.82031-1.48047,2.04004c0,1.18066,0.58105,2.02051,1.48047,2.02051
			c0.90039,0,1.48047-0.83984,1.48047-2.02051C162.89062,607.92676,162.31055,607.10645,161.41016,607.10645z M167.57227,606.02637
			h1.13965l-7.04102,13.34277h-1.12109L167.57227,606.02637z M167.79199,612.9873c1.75977,0,2.9209,1.46094,2.9209,3.34082
			c0,1.86035-1.16113,3.28125-2.9209,3.28125c-1.76074,0-2.90039-1.4209-2.90039-3.28125
			C164.8916,614.44824,166.03125,612.9873,167.79199,612.9873z M167.79199,614.26758c-0.90039,0-1.48047,0.84082-1.48047,2.06055
			c0,1.18066,0.58008,2.00098,1.48047,2.00098s1.5-0.82031,1.5-2.00098C169.29199,615.1084,168.69238,614.26758,167.79199,614.26758
			z"/>
	</g>
	<g>
		<path class="st3" d="M382.81104,607.96484h-5.58105v-1.94043h8.08203v1.52051l-4.20117,11.82227h-2.38086L382.81104,607.96484z"/>
		<path class="st3" d="M387.99072,616.06641c0.67969,1,1.58008,1.56055,2.80078,1.56055c1.35938,0,2.17969-1.12012,2.17969-2.44043
			c0-1.56055-0.78027-2.46094-2.08008-2.46094c-0.90039,0-1.60059,0.33984-2.28027,1.16016l-1.62012-0.45996v-7.40137h7.48145
			v1.94043h-5.26172v3.96094c0.5-0.64062,1.40039-1.12012,2.44043-1.12012c1.98047,0,3.56152,1.54004,3.56152,4.32031
			c0,2.62109-1.74121,4.48145-4.36133,4.48145c-2.02051,0-3.32031-0.80078-4.24121-2.14062L387.99072,616.06641z"/>
		<path class="st3" d="M399.41064,605.82422c1.76074,0,2.9209,1.44043,2.9209,3.32031c0,1.86133-1.16016,3.28125-2.9209,3.28125
			c-1.75977,0-2.91992-1.41992-2.91992-3.28125C396.49072,607.26465,397.65088,605.82422,399.41064,605.82422z M399.41064,607.10449
			c-0.89941,0-1.48047,0.82031-1.48047,2.04004c0,1.18066,0.58105,2.02051,1.48047,2.02051
			c0.90039,0,1.48047-0.83984,1.48047-2.02051C400.89111,607.9248,400.31104,607.10449,399.41064,607.10449z M405.57275,606.02441
			h1.13965l-7.04102,13.34277h-1.12109L405.57275,606.02441z M405.79248,612.98535c1.75977,0,2.9209,1.46094,2.9209,3.34082
			c0,1.86035-1.16113,3.28125-2.9209,3.28125c-1.76074,0-2.90039-1.4209-2.90039-3.28125
			C402.89209,614.44629,404.03174,612.98535,405.79248,612.98535z M405.79248,614.26562c-0.90039,0-1.48047,0.84082-1.48047,2.06055
			c0,1.18066,0.58008,2.00098,1.48047,2.00098s1.5-0.82031,1.5-2.00098
			C407.29248,615.10645,406.69287,614.26562,405.79248,614.26562z"/>
	</g>
	<g>
		<path class="st3" d="M854.25684,616.08203c0.67969,1,1.58008,1.56055,2.80078,1.56055c1.35938,0,2.17969-1.12012,2.17969-2.44043
			c0-1.56055-0.78027-2.46094-2.08008-2.46094c-0.90039,0-1.60059,0.33984-2.28027,1.16016l-1.62012-0.45996v-7.40137h7.48145
			v1.94043h-5.26172v3.96094c0.5-0.64062,1.40039-1.12012,2.44043-1.12012c1.98047,0,3.56152,1.54004,3.56152,4.32031
			c0,2.62109-1.74121,4.48145-4.36133,4.48145c-2.02051,0-3.32031-0.80078-4.24121-2.14062L854.25684,616.08203z"/>
		<path class="st3" d="M867.49707,605.83984c3.24121,0,4.50098,3.18066,4.50098,6.88184c0,3.68066-1.25977,6.90137-4.50098,6.90137
			c-3.2207,0-4.48047-3.2207-4.48047-6.90137C863.0166,609.02051,864.27637,605.83984,867.49707,605.83984z M867.49707,607.80078
			c-1.75977,0-2.21973,2.32031-2.21973,4.9209c0,2.58008,0.45996,4.9209,2.21973,4.9209c1.78027,0,2.24121-2.34082,2.24121-4.9209
			C869.73828,610.12109,869.27734,607.80078,867.49707,607.80078z"/>
		<path class="st3" d="M876.19629,605.83984c1.76074,0,2.9209,1.44043,2.9209,3.32031c0,1.86133-1.16016,3.28125-2.9209,3.28125
			c-1.75977,0-2.91992-1.41992-2.91992-3.28125C873.27637,607.28027,874.43652,605.83984,876.19629,605.83984z M876.19629,607.12012
			c-0.89941,0-1.48047,0.82031-1.48047,2.04004c0,1.18066,0.58105,2.02051,1.48047,2.02051
			c0.90039,0,1.48047-0.83984,1.48047-2.02051C877.67676,607.94043,877.09668,607.12012,876.19629,607.12012z M882.35742,606.04004
			h1.14062l-7.04102,13.34277h-1.12109L882.35742,606.04004z M882.57812,613.00098c1.75977,0,2.9209,1.46094,2.9209,3.34082
			c0,1.86035-1.16113,3.28125-2.9209,3.28125c-1.76074,0-2.90039-1.4209-2.90039-3.28125
			C879.67773,614.46191,880.81738,613.00098,882.57812,613.00098z M882.57812,614.28125c-0.90039,0-1.48047,0.84082-1.48047,2.06055
			c0,1.18066,0.58008,2.00098,1.48047,2.00098s1.5-0.82031,1.5-2.00098
			C884.07812,615.12207,883.47852,614.28125,882.57812,614.28125z"/>
	</g>
	<g>
		<path class="st3" d="M620.54688,605.82422c1.40039,0,2.56055,0.60059,3.28125,1.54004l-1.12012,1.62109
			c-0.52051-0.76074-1.12012-1.2002-2.14062-1.2002c-1.84082,0-2.76074,2.25977-2.76074,4.56055v0.2998
			c0.48047-0.91992,1.58008-1.7998,2.88086-1.7998c1.98047,0,3.64062,1.45996,3.64062,4.30078
			c0,2.44043-1.60059,4.46094-4.14062,4.46094c-3.40137,0-4.62109-3.26074-4.62109-6.90137
			C615.56641,608.90527,617.18652,605.82422,620.54688,605.82422z M620.02734,612.74609c-0.95996,0-1.74023,0.75977-2.2002,1.66016
			c0.08008,1.36035,0.58008,3.2207,2.24023,3.2207c1.37988,0,2-1.24023,2-2.40039
			C622.06738,613.42578,621.10742,612.74609,620.02734,612.74609z"/>
		<path class="st3" d="M631.04688,607.96484h-5.58105v-1.94043h8.08203v1.52051l-4.20117,11.82227h-2.38086L631.04688,607.96484z"/>
		<path class="st3" d="M637.40625,605.82422c1.76074,0,2.9209,1.44043,2.9209,3.32031c0,1.86133-1.16016,3.28125-2.9209,3.28125
			c-1.75977,0-2.91992-1.41992-2.91992-3.28125C634.48633,607.26465,635.64648,605.82422,637.40625,605.82422z M637.40625,607.10449
			c-0.89941,0-1.48047,0.82031-1.48047,2.04004c0,1.18066,0.58105,2.02051,1.48047,2.02051
			c0.90039,0,1.48047-0.83984,1.48047-2.02051C638.88672,607.9248,638.30664,607.10449,637.40625,607.10449z M643.56836,606.02441
			h1.13965l-7.04102,13.34277h-1.12109L643.56836,606.02441z M643.78809,612.98535c1.75977,0,2.9209,1.46094,2.9209,3.34082
			c0,1.86035-1.16113,3.28125-2.9209,3.28125c-1.76074,0-2.90039-1.4209-2.90039-3.28125
			C640.8877,614.44629,642.02734,612.98535,643.78809,612.98535z M643.78809,614.26562c-0.90039,0-1.48047,0.84082-1.48047,2.06055
			c0,1.18066,0.58008,2.00098,1.48047,2.00098s1.5-0.82031,1.5-2.00098
			C645.28809,615.10645,644.68848,614.26562,643.78809,614.26562z"/>
	</g>
	<path class="st6" d="M869.00006,596.02942c-41.42139,0-75-33.57861-75-75s33.57861-75,75-75V596.02942z"/>
	<path class="st7" d="M695.96277,558.53571L631,521.02942l0.00012-75h-0.00006c-41.42139,0-75,33.57864-75,75s33.57861,75,75,75
		C658.75806,596.02942,682.99402,580.94977,695.96277,558.53571z"/>
	<circle class="st8" cx="155" cy="521.02942" r="75"/>
	<circle class="st8" cx="393" cy="521.02942" r="75"/>
	<circle class="st8" cx="631" cy="521.02942" r="75"/>
	<circle class="st8" cx="869" cy="521.02942" r="75"/>
	<circle class="st8" cx="869" cy="201.00604" r="75"/>
	<circle class="st8" cx="631" cy="201.00604" r="75"/>
	<circle class="st8" cx="155" cy="201.00604" r="75"/>
	<circle class="st8" cx="393" cy="201.00604" r="75"/>
</g>
</svg>
